<?xml version="1.0" encoding="UTF-8"?>
<svg id="Layer_1" data-name="Layer 1" xmlns="http://www.w3.org/2000/svg" viewBox="0 0 464.32 140.57">
  <defs>
    <style>
      .cls-1 {
        fill: #fff;
      }

      .cls-2 {
        fill: #197b2d;
      }

      .cls-3 {
        opacity: 1;
      }
    </style>
  </defs>
  <g id="Group_1" data-name="Group 1" class="cls-3">
    <g id="Polygon_1" data-name="Polygon 1">
      <path class="cls-1" d="M109.24,139.79H40.66c-3.74,0-7.41-.5-10.92-1.48-3.36-.94-6.57-2.33-9.56-4.12-5.76-3.46-10.6-8.41-14.01-14.31-3.41-5.9-5.27-12.58-5.39-19.29-.06-3.48,.35-6.96,1.21-10.34,.9-3.53,2.31-6.95,4.18-10.19L40.47,20.69c1.87-3.24,4.14-6.17,6.74-8.71,2.49-2.44,5.3-4.53,8.35-6.22,5.87-3.26,12.58-4.98,19.4-4.98s13.52,1.72,19.4,4.98c3.05,1.69,5.86,3.78,8.35,6.22,2.6,2.54,4.87,5.47,6.74,8.71l34.29,59.37c1.87,3.24,3.28,6.67,4.18,10.19,.87,3.38,1.27,6.86,1.21,10.34-.12,6.72-1.98,13.39-5.39,19.29-3.41,5.9-8.25,10.85-14.01,14.31-2.99,1.79-6.2,3.18-9.56,4.12-3.5,.98-7.18,1.48-10.92,1.48Z"/>
      <path class="cls-1" d="M74.95,1.56c-6.68,0-13.26,1.69-19.02,4.88-2.99,1.65-5.74,3.7-8.18,6.09-2.55,2.49-4.77,5.37-6.61,8.54L6.86,80.44c-1.83,3.18-3.21,6.54-4.1,10-.85,3.31-1.25,6.72-1.19,10.13,.11,6.58,1.94,13.13,5.28,18.92,3.34,5.79,8.09,10.64,13.74,14.04,2.93,1.76,6.08,3.12,9.37,4.04,3.44,.96,7.04,1.45,10.71,1.45H109.24c3.67,0,7.27-.49,10.71-1.45,3.29-.92,6.44-2.28,9.37-4.04,5.64-3.39,10.39-8.25,13.74-14.04,3.34-5.79,5.17-12.33,5.28-18.92,.06-3.41-.34-6.82-1.19-10.13-.89-3.46-2.27-6.82-4.1-10L108.76,21.08c-1.83-3.18-4.06-6.05-6.61-8.54-2.44-2.39-5.19-4.44-8.18-6.09-5.76-3.19-12.34-4.88-19.02-4.88m0-1.56c13.67,0,27.34,6.77,35.16,20.3l34.29,59.37c15.63,27.07-3.9,60.91-35.16,60.91H40.66c-31.26,0-50.79-33.84-35.16-60.91L39.79,20.3C47.61,6.77,61.28,0,74.95,0Z"/>
    </g>
    <g id="Polygon_2" data-name="Polygon 2">
      <path class="cls-2" d="M96.74,139.79H51.6c-3.74,0-7.41-.5-10.92-1.48-3.36-.94-6.57-2.33-9.56-4.12-5.76-3.46-10.6-8.41-14.01-14.32-3.41-5.9-5.27-12.58-5.39-19.29-.06-3.48,.35-6.96,1.21-10.34,.9-3.53,2.31-6.95,4.18-10.19l22.57-39.07c1.87-3.24,4.14-6.17,6.74-8.71,2.49-2.44,5.3-4.53,8.35-6.22,5.87-3.25,12.58-4.98,19.4-4.98s13.52,1.72,19.4,4.98c3.05,1.69,5.86,3.78,8.35,6.22,2.6,2.54,4.87,5.47,6.74,8.71l22.57,39.07c1.87,3.24,3.28,6.67,4.18,10.19,.87,3.38,1.27,6.86,1.21,10.34-.12,6.72-1.98,13.39-5.39,19.29-3.41,5.9-8.25,10.85-14.01,14.32-2.99,1.79-6.2,3.18-9.56,4.12-3.5,.98-7.18,1.48-10.92,1.48Z"/>
      <path class="cls-1" d="M74.17,21.85c-6.68,0-13.26,1.69-19.02,4.88-2.99,1.65-5.74,3.7-8.18,6.09-2.55,2.49-4.77,5.37-6.61,8.54l-22.57,39.07c-1.83,3.18-3.21,6.54-4.1,10-.85,3.31-1.25,6.72-1.19,10.13,.11,6.58,1.94,13.13,5.28,18.92,3.34,5.79,8.09,10.64,13.74,14.04,2.93,1.76,6.08,3.12,9.37,4.04,3.44,.96,7.04,1.45,10.71,1.45h45.14c3.67,0,7.27-.49,10.71-1.45,3.29-.92,6.44-2.28,9.37-4.04,5.64-3.39,10.39-8.25,13.74-14.04,3.34-5.79,5.17-12.33,5.28-18.92,.06-3.41-.34-6.82-1.19-10.13-.89-3.46-2.27-6.82-4.1-10l-22.57-39.07c-1.83-3.17-4.06-6.05-6.61-8.54-2.44-2.39-5.19-4.44-8.18-6.09-5.76-3.19-12.33-4.88-19.02-4.88m0-1.56c13.67,0,27.34,6.76,35.16,20.29l22.57,39.07c15.64,27.07-3.9,60.91-35.16,60.91H51.6c-31.26,0-50.79-33.84-35.16-60.91l22.57-39.07c7.82-13.53,21.49-20.29,35.16-20.29Z"/>
    </g>
    <g id="Polygon_3" data-name="Polygon 3">
      <path class="cls-1" d="M81.65,139.79h-14.96c-3.45,0-6.84-.46-10.07-1.37-3.1-.87-6.07-2.15-8.82-3.81-5.31-3.2-9.78-7.77-12.91-13.22-3.14-5.45-4.85-11.61-4.94-17.81-.05-3.21,.33-6.42,1.14-9.54,.84-3.25,2.15-6.41,3.88-9.4l7.48-12.87c1.73-2.97,3.82-5.66,6.21-7.99,2.3-2.24,4.88-4.15,7.68-5.7,5.4-2.99,11.57-4.56,17.84-4.56s12.43,1.58,17.84,4.56c2.8,1.55,5.39,3.47,7.68,5.7,2.4,2.33,4.48,5.02,6.21,7.99l7.48,12.87c1.73,2.98,3.04,6.15,3.88,9.4,.81,3.12,1.19,6.32,1.14,9.54-.1,6.2-1.8,12.36-4.94,17.81s-7.6,10.03-12.91,13.22c-2.75,1.66-5.72,2.94-8.82,3.81-3.23,.91-6.62,1.37-10.07,1.37Z"/>
      <path class="cls-1" d="M74.17,54.31c-6.13,0-12.17,1.54-17.46,4.47-2.74,1.51-5.27,3.39-7.51,5.58-2.34,2.28-4.39,4.92-6.08,7.82l-7.48,12.87c-1.7,2.92-2.98,6.02-3.8,9.2-.79,3.05-1.16,6.19-1.12,9.33,.09,6.07,1.77,12.09,4.84,17.43,3.07,5.34,7.44,9.81,12.64,12.94,2.69,1.62,5.6,2.88,8.63,3.72,3.17,.89,6.48,1.34,9.86,1.34h14.96c3.38,0,6.7-.45,9.86-1.34,3.03-.85,5.93-2.1,8.63-3.72,5.2-3.13,9.57-7.6,12.64-12.94,3.07-5.34,4.74-11.37,4.84-17.43,.05-3.14-.33-6.28-1.12-9.33-.82-3.18-2.1-6.28-3.8-9.2l-7.48-12.87c-1.69-2.91-3.74-5.54-6.08-7.82-2.25-2.19-4.77-4.06-7.51-5.58-5.29-2.92-11.33-4.47-17.46-4.47m0-1.56c12.59,0,25.18,6.21,32.4,18.64l7.48,12.87c14.52,24.99-3.5,56.31-32.4,56.31h-14.96c-28.9,0-46.93-31.33-32.4-56.31l7.48-12.87c7.22-12.43,19.81-18.64,32.4-18.64Z"/>
    </g>
  </g>
</svg>