<?xml version="1.0" encoding="utf-8"?>
<!-- Generator: Adobe Illustrator 26.4.0, SVG Export Plug-In . SVG Version: 6.00 Build 0)  -->
<svg version="1.1" id="Layer_1" xmlns="http://www.w3.org/2000/svg" xmlns:xlink="http://www.w3.org/1999/xlink" x="0px" y="0px"
	 viewBox="0 0 393 116" enable-background="new 0 0 393 116" xml:space="preserve">
<g id="Group_1" transform="translate(-153 -49)" opacity="0.997">
	<g id="Polygon_1" transform="translate(153 49)">
		<path fill="#FFFFFF" d="M88.46,103.22H44.54c-2.39,0-4.75-0.32-6.99-0.95c-2.15-0.6-4.21-1.49-6.12-2.64
			c-3.69-2.22-6.79-5.39-8.97-9.17c-2.18-3.78-3.38-8.05-3.45-12.35c-0.04-2.23,0.22-4.46,0.78-6.62c0.58-2.26,1.48-4.45,2.68-6.53
			l21.96-38.02c1.2-2.07,2.65-3.95,4.31-5.58c1.6-1.56,3.39-2.9,5.35-3.98c3.76-2.08,8.06-3.19,12.42-3.19
			c4.36,0,8.66,1.1,12.42,3.19c1.95,1.08,3.75,2.42,5.35,3.98c1.67,1.63,3.12,3.51,4.31,5.58l21.96,38.02
			c1.2,2.07,2.1,4.27,2.68,6.53c0.55,2.16,0.82,4.39,0.78,6.62c-0.07,4.3-1.27,8.57-3.45,12.35c-2.18,3.78-5.28,6.95-8.97,9.17
			c-1.91,1.15-3.97,2.04-6.12,2.64C93.2,102.9,90.85,103.22,88.46,103.22z"/>
		<path fill="#FFFFFF" d="M66.5,14.7c-4.28,0-8.49,1.08-12.18,3.12c-1.91,1.06-3.67,2.37-5.24,3.9c-1.63,1.6-3.06,3.44-4.23,5.47
			L22.89,65.21c-1.17,2.03-2.06,4.19-2.63,6.4c-0.54,2.12-0.8,4.3-0.76,6.49c0.07,4.22,1.24,8.4,3.38,12.11
			c2.14,3.71,5.18,6.82,8.8,8.99c1.87,1.13,3.89,2,6,2.59c2.2,0.62,4.51,0.93,6.86,0.93h43.91c2.35,0,4.66-0.31,6.86-0.93
			c2.11-0.59,4.13-1.46,6-2.59c3.61-2.17,6.66-5.28,8.8-8.99c2.14-3.71,3.31-7.9,3.38-12.11c0.04-2.19-0.22-4.37-0.76-6.49
			c-0.57-2.21-1.45-4.37-2.63-6.4L88.15,27.2c-1.17-2.03-2.6-3.87-4.23-5.47c-1.56-1.53-3.33-2.84-5.24-3.9
			C74.99,15.78,70.78,14.7,66.5,14.7 M66.5,13.7c8.76,0,17.51,4.33,22.51,13l21.96,38.02c10.01,17.33-2.5,39-22.51,39H44.54
			c-20.02,0-32.53-21.67-22.51-39L43.99,26.7C48.99,18.03,57.74,13.7,66.5,13.7z"/>
	</g>
	<g id="Polygon_2" transform="translate(160 62)">
		<path fill="#197B2D" d="M73.45,90.22H44.55c-2.39,0-4.75-0.32-6.99-0.95c-2.15-0.6-4.21-1.49-6.12-2.64
			c-3.69-2.22-6.79-5.39-8.97-9.17c-2.18-3.78-3.38-8.05-3.45-12.35c-0.04-2.23,0.22-4.46,0.78-6.62c0.58-2.26,1.48-4.45,2.68-6.53
			l14.45-25.02c1.2-2.07,2.65-3.95,4.31-5.58c1.6-1.56,3.39-2.9,5.35-3.98C50.34,15.3,54.64,14.2,59,14.2
			c4.36,0,8.66,1.1,12.42,3.19c1.95,1.08,3.75,2.42,5.35,3.98c1.67,1.63,3.12,3.51,4.31,5.58l14.45,25.02
			c1.2,2.07,2.1,4.27,2.68,6.53c0.55,2.16,0.82,4.39,0.78,6.62c-0.07,4.3-1.27,8.57-3.45,12.35c-2.18,3.78-5.28,6.95-8.97,9.17
			c-1.91,1.15-3.97,2.04-6.12,2.64C78.2,89.9,75.85,90.22,73.45,90.22z"/>
		<path fill="#FFFFFF" d="M59,14.7c-4.28,0-8.49,1.08-12.18,3.12c-1.91,1.06-3.67,2.37-5.24,3.9c-1.63,1.6-3.06,3.44-4.23,5.47
			L22.9,52.21c-1.17,2.03-2.06,4.19-2.63,6.4c-0.54,2.12-0.8,4.3-0.76,6.49c0.07,4.22,1.24,8.41,3.38,12.11
			c2.14,3.71,5.18,6.82,8.8,8.99c1.87,1.13,3.89,2,6,2.59c2.2,0.62,4.51,0.93,6.86,0.93h28.91c2.35,0,4.66-0.31,6.86-0.93
			c2.11-0.59,4.13-1.46,6-2.59c3.61-2.17,6.66-5.28,8.8-8.99c2.14-3.71,3.31-7.9,3.38-12.11c0.04-2.19-0.22-4.37-0.76-6.49
			c-0.57-2.21-1.45-4.37-2.63-6.4L80.65,27.19c-1.17-2.03-2.6-3.87-4.23-5.47c-1.56-1.53-3.33-2.84-5.24-3.9
			C67.49,15.78,63.28,14.7,59,14.7 M59,13.7c8.75,0,17.51,4.33,22.51,12.99l14.45,25.02c10.01,17.33-2.5,39.01-22.51,39.01H44.55
			c-20.02,0-32.53-21.67-22.51-39.01l14.45-25.02C41.49,18.03,50.25,13.7,59,13.7z"/>
	</g>
	<g id="Polygon_3" transform="translate(173 85)">
		<path fill="#FFFFFF" d="M50.79,67.22h-9.58c-2.21,0-4.38-0.29-6.45-0.87c-1.98-0.56-3.88-1.38-5.65-2.44
			c-3.4-2.05-6.26-4.97-8.27-8.47c-2.01-3.49-3.1-7.44-3.16-11.4c-0.03-2.06,0.21-4.11,0.73-6.11c0.54-2.08,1.38-4.11,2.49-6.02
			l4.79-8.24c1.11-1.9,2.44-3.62,3.98-5.12c1.47-1.43,3.12-2.66,4.92-3.65c3.46-1.91,7.41-2.92,11.42-2.92
			c4.01,0,7.96,1.01,11.42,2.92c1.79,0.99,3.45,2.22,4.92,3.65c1.53,1.49,2.87,3.22,3.98,5.12l4.79,8.24
			c1.11,1.91,1.95,3.94,2.49,6.02c0.52,1.99,0.76,4.05,0.73,6.11c-0.06,3.97-1.16,7.91-3.16,11.4s-4.87,6.42-8.27,8.47
			c-1.76,1.06-3.66,1.88-5.65,2.44C55.17,66.92,53,67.22,50.79,67.22z"/>
		<path fill="#FFFFFF" d="M46,12.48c-3.93,0-7.79,0.99-11.18,2.86c-1.76,0.97-3.37,2.17-4.81,3.57c-1.5,1.46-2.81,3.15-3.89,5.01
			l-4.79,8.24c-1.09,1.87-1.91,3.85-2.43,5.89c-0.51,1.95-0.75,3.96-0.71,5.98c0.06,3.88,1.13,7.74,3.1,11.16
			c1.97,3.42,4.77,6.28,8.09,8.29c1.73,1.04,3.58,1.84,5.53,2.39c2.03,0.57,4.15,0.86,6.32,0.86h9.58c2.16,0,4.29-0.29,6.32-0.86
			c1.94-0.54,3.8-1.35,5.53-2.39c3.33-2,6.13-4.87,8.09-8.29c1.97-3.42,3.04-7.28,3.1-11.16c0.03-2.01-0.21-4.02-0.71-5.98
			c-0.53-2.04-1.35-4.02-2.43-5.89l-4.79-8.24c-1.08-1.86-2.39-3.55-3.89-5.01c-1.44-1.4-3.06-2.6-4.81-3.57
			C53.79,13.46,49.93,12.48,46,12.48 M46,11.48c8.06,0,16.12,3.98,20.75,11.94l4.79,8.24c9.3,16-2.24,36.06-20.75,36.06h-9.58
			c-18.51,0-30.05-20.06-20.75-36.06l4.79-8.24C29.88,15.46,37.94,11.48,46,11.48z"/>
	</g>
</g>
<rect x="151.17" y="17.71" fill="none" width="222" height="82"/>
<text transform="matrix(1 0 0 1 171.7588 50.375)"><tspan x="0" y="0" fill="#FFFFFF" font-family="'TrebuchetMS'" font-size="36px">Home Food </tspan><tspan x="14.43" y="43.2" fill="#FFFFFF" font-family="'TrebuchetMS'" font-size="36px">Inventory </tspan></text>
</svg>
